<?xml version="1.0" encoding="UTF-8"?>
<svg xmlns="http://www.w3.org/2000/svg" viewBox="0 0 256 256">
  <g transform="translate(26.84,8) scale(0.9373)">
    <path fill="#0f0f0f" d="M170.02,235.54c-37.85,27.75-88.1,27.18-125.24-.73C18.58,215.12,2.3,184.96.3,151.9-2.48,105.95,13.98,53.5,49.65,22.82c32.17-27.66,73.67-30.75,108.62-6.1,38.34,27.03,56,76.45,57.54,122.28,1.27,37.85-14.94,73.91-45.8,96.53Z"/>
    <path fill="#fffe8c" d="M207.9,113.15c2.38,14.87,2.46,25.36,1.43,40.33-.18,2.6-.87,5.06-1.43,7.43-11.23,41.13-59.98,59.65-99.34,59.75-39.75.1-89.22-18.09-100.71-59.74l-1.71-9c-1.3-17.82.47-38.27,6.23-56.14,7.35-25.41,20.7-44.78,20.7-44.78,4.74-7.17,13.48-18.42,27.77-27.94,7.26-4.84,21.6-14.15,41.87-15.59,27.26-1.93,47.35,11.64,55.13,17.07,20.64,14.39,29.74,32.92,35.9,45.46,8.37,17.04,11.16,33.07,14.16,43.15Z"/>
    <path fill="#ce7221" d="M207.9,160.91c-.24,5.12-1.95,8.94-2.99,13.01-30.58,82.64-163.51,82.52-194.06.01-1.22-4.85-2.19-8.78-2.99-13.02,7.07,17.05,18.78,31.01,35.49,40.75,41.22,24.03,98.1,22.83,136.95-5.21,12.94-9.34,21.66-21.56,27.61-35.55Z"/>
    <path fill="#722f1f" d="M204.91,173.92c-6.16,23.95-21.42,44.11-41.42,57.74-33.29,22.68-76.43,22.93-110.03.8-20.89-13.76-36.62-34.74-42.61-58.53,9.51,19.75,23.51,36,43.46,46.64,33.45,17.85,73.73,17.89,107.17.02,19.94-10.65,33.96-26.92,43.44-46.67Z"/>
    <g fill="#ef209c">
      <circle cx="94.44" cy="97.27" r="24.22"/>
      <circle cx="170.93" cy="152.05" r="21.91"/>
      <circle cx="44.3" cy="159.89" r="21.38"/>
      <circle cx="110.7" cy="182.19" r="20.35"/>
      <circle cx="148.78" cy="56.78" r="19.8"/>
      <path d="M40.25,71.02c0-7.3-3.23-13.83-8.34-18.28-3.34,5.23-13.24,21.69-19.31,42.25,1.12.16,2.26.25,3.43.25,13.38,0,24.22-10.84,24.22-24.22Z"/>
      <path d="M60.29,23.43c4.43,5.65,11.32,9.28,19.06,9.28,13.38,0,24.22-10.84,24.22-24.22,0-.36-.01-.71-.03-1.07-.28.02-.55.03-.83.04-20.27,1.44-34.61,10.75-41.87,15.59-.19.12-.36.25-.55.38Z"/>
      <path d="M183.22,91.77c0,11.81,9.57,21.38,21.38,21.38,1.1,0,2.17-.11,3.22-.27-2.81-9.56-5.49-24.32-12.81-40.2-6.99,3.52-11.79,10.73-11.79,19.09Z"/>
    </g>
  </g>
</svg>
